<svg xmlns="http://www.w3.org/2000/svg" xmlns:xlink="http://www.w3.org/1999/xlink" width="250" zoomAndPan="magnify" viewBox="0 0 187.5 187.499992" height="250" preserveAspectRatio="xMidYMid meet" version="1.0"><defs><clipPath id="ab7b21ace4"><path d="M 10.984375 1.492188 L 176.015625 1.492188 L 176.015625 187 L 10.984375 187 Z M 10.984375 1.492188 " clip-rule="nonzero"/></clipPath><clipPath id="c62daa608f"><path d="M 93.5 1.492188 L 176.015625 47.871094 L 176.015625 140.625 L 93.5 187 L 10.984375 140.625 L 10.984375 47.871094 Z M 93.5 1.492188 " clip-rule="nonzero"/></clipPath><clipPath id="2bd9a8e5d1"><path d="M 39 16.390625 L 148 16.390625 L 148 79 L 39 79 Z M 39 16.390625 " clip-rule="nonzero"/></clipPath><clipPath id="3429f2efa8"><path d="M 39 109 L 148 109 L 148 171.972656 L 39 171.972656 Z M 39 109 " clip-rule="nonzero"/></clipPath></defs><g clip-path="url(#ab7b21ace4)"><g clip-path="url(#c62daa608f)"><path fill="#000000" d="M 10.984375 1.492188 L 176.015625 1.492188 L 176.015625 187.152344 L 10.984375 187.152344 Z M 10.984375 1.492188 " fill-opacity="1" fill-rule="nonzero"/></g></g><g clip-path="url(#2bd9a8e5d1)"><path fill="#ffffff" d="M 148 47.53125 L 148 78.675781 L 93.5 47.53125 L 39 78.675781 L 39 47.53125 L 93.5 16.390625 Z M 148 47.53125 " fill-opacity="1" fill-rule="evenodd"/></g><g clip-path="url(#3429f2efa8)"><path fill="#ffffff" d="M 148 109.816406 L 148 140.960938 L 93.5 172.101562 L 39 140.960938 L 39 109.816406 L 93.5 140.960938 Z M 148 109.816406 " fill-opacity="1" fill-rule="evenodd"/></g><path fill="#545454" d="M 93.5 47.53125 L 66.25 63.105469 L 148 109.816406 L 148 125.386719 L 93.5 156.53125 L 39 125.386719 L 39 109.816406 L 93.5 140.960938 L 120.75 125.386719 L 39 78.675781 L 39 63.105469 L 93.5 31.960938 L 148 63.105469 L 148 78.675781 Z M 93.5 47.53125 " fill-opacity="1" fill-rule="evenodd"/></svg>